<svg width="32" height="32" viewBox="0 0 32 32" fill="none" xmlns="http://www.w3.org/2000/svg">
<path d="M16 0C17.714 0 29 6.516 29.854 8C30.713 9.484 30.713 22.516 29.854 24C28.995 25.484 17.713 32 16 32C14.286 32 3 25.484 2.141 24C1.287 22.516 1.287 9.484 2.141 8C3 6.516 14.287 0 16 0ZM19.063 9.068C19.0174 9.06734 18.9721 9.07575 18.9298 9.09274C18.8875 9.10973 18.849 9.13496 18.8165 9.16697C18.784 9.19898 18.7583 9.23713 18.7407 9.27919C18.7231 9.32126 18.714 9.3664 18.714 9.412V14.579H13.287V9.209H14.219C14.2639 9.20887 14.3083 9.19985 14.3497 9.18245C14.3911 9.16506 14.4287 9.13964 14.4602 9.10765C14.4917 9.07567 14.5166 9.03776 14.5334 8.99611C14.5502 8.95446 14.5585 8.9099 14.558 8.865C14.5578 8.80672 14.543 8.74943 14.5149 8.69839C14.4867 8.64736 14.4462 8.60424 14.397 8.573L12.298 6.563C12.2619 6.51751 12.216 6.48076 12.1637 6.45548C12.1114 6.4302 12.0541 6.41705 11.996 6.417C11.9423 6.41773 11.8894 6.43083 11.8415 6.45528C11.7937 6.47974 11.7521 6.51488 11.72 6.558L9.48 8.574C9.41572 8.6131 9.36609 8.67226 9.33874 8.74235C9.31139 8.81244 9.30784 8.88957 9.32865 8.96188C9.34945 9.03418 9.39345 9.09764 9.45387 9.14247C9.51429 9.18731 9.58777 9.21104 9.663 9.21H10.601L10.611 22.59C10.611 22.783 10.757 22.934 10.95 22.934H12.94C12.9852 22.9341 13.03 22.9253 13.0718 22.9081C13.1136 22.8908 13.1516 22.8655 13.1835 22.8335C13.2155 22.8016 13.2408 22.7636 13.2581 22.7218C13.2753 22.68 13.2841 22.6352 13.284 22.59V17.251H18.716V22.787H17.784C17.7088 22.786 17.6353 22.8097 17.5749 22.8545C17.5145 22.8994 17.4705 22.9628 17.4496 23.0351C17.4288 23.1074 17.4324 23.1846 17.4597 23.2547C17.4871 23.3247 17.5367 23.3839 17.601 23.423L19.705 25.439C19.762 25.522 19.893 25.585 20.007 25.585C20.121 25.585 20.215 25.522 20.283 25.439L22.523 23.423C22.5725 23.392 22.6132 23.349 22.6414 23.2979C22.6695 23.2468 22.6842 23.1893 22.684 23.131C22.6832 23.04 22.6467 22.953 22.5824 22.8886C22.518 22.8243 22.431 22.7878 22.34 22.787H21.402L21.392 9.412C21.3932 9.36668 21.3853 9.32158 21.3688 9.27935C21.3524 9.23713 21.3276 9.19862 21.296 9.1661C21.2644 9.13358 21.2266 9.10771 21.1849 9.09C21.1432 9.0723 21.0983 9.06312 21.053 9.063H19.063V9.068Z" fill="black"/>
</svg>
