<svg width="40" height="40" viewBox="0 0 40 40" fill="none" xmlns="http://www.w3.org/2000/svg">
<path opacity="0.3" fill-rule="evenodd" clip-rule="evenodd" d="M33.6002 27.9771V9.59998C35.426 9.97175 36.8002 11.591 36.8002 13.5322V34.397C36.8002 34.9258 36.2993 35.31 35.7905 35.1715C33.7335 34.6112 28.921 33.0894 28.1779 32.8904C26.6142 32.4716 25.1257 32.2145 23.2728 32.0872C25.6313 30.9521 28.2647 30.3846 31.2002 30.3846C32.5257 30.3846 33.6002 29.3067 33.6002 27.9771ZM6.4002 9.59998V27.9771C6.4002 29.3067 7.47471 30.3846 8.8002 30.3846C11.7608 30.3846 14.399 30.9521 16.7421 32.0862C14.8825 32.2131 13.3903 32.4705 11.8225 32.8904C11.0794 33.0894 6.26687 34.6112 4.20984 35.1715C3.70113 35.31 3.2002 34.9258 3.2002 34.397V13.5322C3.2002 11.591 4.5744 9.97175 6.4002 9.59998Z" fill="#1565D8"/>
<path fill-rule="evenodd" clip-rule="evenodd" d="M19.2 31.9977C16.2142 30.0831 12.7536 29.125 8.8 29.125C8.35817 29.125 8 28.762 8 28.3142V5.61082C8 5.16301 8.35817 4.79999 8.8 4.79999C12.7003 4.79999 16.1717 5.66648 19.2 7.40124V31.9977ZM20.8 7.40941C23.8607 5.66954 27.332 4.79999 31.2 4.79999C31.6418 4.79999 32 5.16301 32 5.61082V28.3142C32 28.762 31.6418 29.125 31.2 29.125C27.2764 29.125 23.8157 30.0836 20.8 32V7.40941Z" fill="#1565D8"/>
</svg>
