<svg width="40" height="40" viewBox="0 0 40 40" fill="none" xmlns="http://www.w3.org/2000/svg">
<path fill-rule="evenodd" clip-rule="evenodd" d="M11.4927 15.7021C13.5954 12.714 14.9079 9.28517 15.4345 5.4034C15.4846 5.03362 15.7464 4.72614 16.1057 4.61495C19.7268 3.49431 21.7855 5.27509 21.7515 9.33564C21.7449 10.1238 21.7085 10.8244 21.6311 11.8959C21.4581 14.2893 21.4719 14.9424 21.7399 15.3819C21.9974 15.8044 22.8336 15.9486 24.8114 15.5732C25.4354 15.4547 26.0615 15.3204 26.7549 15.1591C27.0609 15.0879 29.2657 14.5499 29.8292 14.4282C30.9042 14.1961 31.6756 14.0979 32.3539 14.1395C34.1914 14.2521 35.1664 15.4352 35.3349 17.7018C35.6316 21.6936 34.7148 29.7114 33.8001 32.6647C32.8655 35.6825 31.2355 36.8217 27.3229 36.8905C24.8073 36.9347 20.9383 36.9347 15.6977 36.8903C14.36 36.8592 13.1476 36.6002 12.0692 36.1159C12.3719 35.4891 12.5415 34.787 12.5415 34.0457V18.6857C12.5415 17.5581 12.1492 16.5213 11.4927 15.7021Z" fill="#1565D8"/>
<path opacity="0.3" fill-rule="evenodd" clip-rule="evenodd" d="M5.7622 15.8057C4.15766 15.8057 2.85693 17.0951 2.85693 18.6857V34.0457C2.85693 35.6363 4.15766 36.9257 5.7622 36.9257H7.69904C9.30357 36.9257 10.6043 35.6363 10.6043 34.0457V18.6857C10.6043 17.0951 9.30357 15.8057 7.69904 15.8057H5.7622Z" fill="#1565D8"/>
</svg>
