<svg width="40" height="40" viewBox="0 0 40 40" fill="none" xmlns="http://www.w3.org/2000/svg">
<path fill-rule="evenodd" clip-rule="evenodd" d="M34.9447 5.69533C36.0309 11.5255 33.5964 17.709 28.7064 21.5774L15.7497 31.8275C15.4313 32.0793 14.9747 32.0528 14.6876 31.7657L8.23432 25.3124C7.94725 25.0253 7.92072 24.5688 8.17259 24.2504L18.4226 11.2936C22.2911 6.40361 28.4746 3.96916 34.3047 5.05539C34.6298 5.11595 34.8841 5.37026 34.9447 5.69533ZM23.5716 10.7716C22.0095 12.3337 22.0095 14.8663 23.5716 16.4284C25.1337 17.9905 27.6663 17.9905 29.2284 16.4284C30.7905 14.8663 30.7905 12.3337 29.2284 10.7716C27.6663 9.20946 25.1337 9.20946 23.5716 10.7716ZM28.0971 15.297C27.1598 16.2343 25.6402 16.2343 24.7029 15.297C23.7657 14.3598 23.7657 12.8402 24.7029 11.9029C25.6402 10.9657 27.1598 10.9657 28.0971 11.9029C29.0343 12.8402 29.0343 14.3598 28.0971 15.297Z" fill="#1565D8"/>
<path opacity="0.3" fill-rule="evenodd" clip-rule="evenodd" d="M12.7998 32.2508L12.0892 32.9615C11.2378 33.8129 9.85739 33.8129 9.00599 32.9615L7.03835 30.9938C6.18696 30.1424 6.18696 28.762 7.03835 27.9106L7.74898 27.2L12.7998 32.2508ZM8.59593 20.8L5.16722 18.5206C4.70259 18.2117 4.67342 17.5414 5.10947 17.1936L11.2997 12.2756C12.6336 11.2159 14.4088 10.9228 15.998 11.4695L8.59593 20.8ZM28.507 24C29.0895 25.6207 28.7935 27.4427 27.703 28.7975L22.7993 34.8902C22.4521 35.3265 21.7831 35.2973 21.4748 34.8324L19.1998 31.4018L28.507 24Z" fill="#1565D8"/>
</svg>
